<svg style="max-height: 500px" xmlns="http://www.w3.org/2000/svg" id="Layer_1" data-name="Layer 1" viewBox="5.3 6.58 68.84224613840405 73.04100667693888" width="68.84224613840405" height="73.04100667693888"><defs><style>.cls-1{fill:#fff;}.cls-2,.cls-3{fill:#cda839;}.cls-3{fill-rule:evenodd;}</style></defs><rect class="cls-1" x="92.2" y="25.08" width="1.29" height="11.45"/><path class="cls-1" d="M96,28.08h1.27v1.47a3.2,3.2,0,0,1,2.89-1.65,3.09,3.09,0,0,1,3.24,3.39v5.25H102.1V31.6a2.25,2.25,0,0,0-2.34-2.55,2.49,2.49,0,0,0-2.53,2.65v4.84H96Z"/><path class="cls-1" d="M105,35.46l.64-.9a4.91,4.91,0,0,0,2.93,1.08c1,0,1.75-.52,1.75-1.34v0c0-.85-1-1.17-2.11-1.48-1.33-.38-2.8-.84-2.8-2.39v0c0-1.45,1.21-2.42,2.88-2.42a5.78,5.78,0,0,1,3,.93l-.57.95a4.86,4.86,0,0,0-2.5-.81c-1,0-1.64.52-1.64,1.22v0c0,.8,1,1.11,2.18,1.45,1.31.39,2.71.9,2.71,2.42v0c0,1.6-1.32,2.53-3,2.53a5.81,5.81,0,0,1-3.5-1.24"/><path class="cls-1" d="M113.79,34.3V29.19h-1.18V28.08h1.18V25.53h1.26v2.55h2.68v1.11h-2.68v4.94a1.25,1.25,0,0,0,1.42,1.41,2.67,2.67,0,0,0,1.23-.29v1.08a3.16,3.16,0,0,1-1.52.36,2.15,2.15,0,0,1-2.39-2.39"/><path class="cls-1" d="M119.65,24.84h1.44v1.39h-1.44Zm.08,3.24H121v8.46h-1.26Z"/><path class="cls-1" d="M124,34.3V29.19h-1.18V28.08H124V25.53h1.26v2.55H128v1.11h-2.68v4.94a1.25,1.25,0,0,0,1.42,1.41,2.67,2.67,0,0,0,1.23-.29v1.08a3.16,3.16,0,0,1-1.52.36A2.15,2.15,0,0,1,124,34.3"/><path class="cls-1" d="M129.71,33.33V28.08H131V33a2.25,2.25,0,0,0,2.34,2.55,2.5,2.5,0,0,0,2.54-2.65V28.08h1.24v8.46h-1.24V35.07a3.23,3.23,0,0,1-2.9,1.65,3.1,3.1,0,0,1-3.24-3.39"/><path class="cls-1" d="M140,34.3V29.19h-1.18V28.08H140V25.53h1.26v2.55H144v1.11h-2.68v4.94a1.25,1.25,0,0,0,1.42,1.41,2.73,2.73,0,0,0,1.23-.29v1.08a3.2,3.2,0,0,1-1.53.36A2.15,2.15,0,0,1,140,34.3"/><path class="cls-1" d="M145.08,32.33v0a4.17,4.17,0,0,1,4.06-4.4c2.51,0,3.94,2,3.94,4.47,0,.16,0,.26,0,.41h-6.71a3,3,0,0,0,3,2.86,3.45,3.45,0,0,0,2.66-1.2l.79.71a4.36,4.36,0,0,1-3.49,1.59,4.21,4.21,0,0,1-4.22-4.41m6.73-.49c-.13-1.54-1-2.88-2.7-2.88a2.92,2.92,0,0,0-2.75,2.88Z"/><path class="cls-1" d="M91.23,52v0c0-1.79,1.48-2.74,3.62-2.74a9,9,0,0,1,2.6.36v-.29c0-1.52-.93-2.31-2.52-2.31a5.94,5.94,0,0,0-2.57.62l-.37-1a7,7,0,0,1,3.07-.7,3.73,3.73,0,0,1,2.74.93,3.34,3.34,0,0,1,.86,2.47v5.17H97.45V53.14a3.7,3.7,0,0,1-3.06,1.45c-1.57,0-3.16-.9-3.16-2.63m6.24-.66v-.82A9.22,9.22,0,0,0,95,50.12c-1.58,0-2.47.69-2.47,1.76v0c0,1.06,1,1.68,2.13,1.68,1.55,0,2.83-.94,2.83-2.29"/><path class="cls-1" d="M100.84,46h1.26v1.48a3.21,3.21,0,0,1,2.9-1.66,3.1,3.1,0,0,1,3.24,3.39v5.25H107V49.47a2.25,2.25,0,0,0-2.34-2.55,2.49,2.49,0,0,0-2.54,2.65v4.84h-1.26Z"/><path class="cls-1" d="M110.09,50.21v0a4.15,4.15,0,0,1,4-4.4,3.81,3.81,0,0,1,3.24,1.8v-5.1h1.26V54.41h-1.26v-1.7a3.79,3.79,0,0,1-3.24,1.88,4.12,4.12,0,0,1-4-4.38m7.33,0v0a3.15,3.15,0,0,0-3.06-3.26,3,3,0,0,0-3,3.26v0a3.05,3.05,0,0,0,3,3.27,3.16,3.16,0,0,0,3.06-3.27"/><polygon class="cls-1" points="126.57 42.96 134.8 42.96 134.8 44.15 127.86 44.15 127.86 48.24 134.07 48.24 134.07 49.42 127.86 49.42 127.86 54.41 126.57 54.41 126.57 42.96"/><path class="cls-1" d="M135.54,52v0c0-1.79,1.47-2.74,3.62-2.74a9,9,0,0,1,2.6.36v-.29c0-1.52-.93-2.31-2.52-2.31a5.9,5.9,0,0,0-2.57.62l-.38-1a7.09,7.09,0,0,1,3.08-.7,3.72,3.72,0,0,1,2.73.93,3.3,3.3,0,0,1,.87,2.47v5.17h-1.21V53.14a3.7,3.7,0,0,1-3.06,1.45c-1.57,0-3.16-.9-3.16-2.63m6.24-.66v-.82a9.29,9.29,0,0,0-2.49-.36c-1.59,0-2.47.69-2.47,1.76v0c0,1.06,1,1.68,2.12,1.68,1.56,0,2.84-.94,2.84-2.29"/><path class="cls-1" d="M144.62,50.22v0a4.41,4.41,0,0,1,7.73-2.91l-.84.88A3.42,3.42,0,0,0,149,46.88a3.13,3.13,0,0,0-3,3.28v0A3.16,3.16,0,0,0,149,53.48a3.48,3.48,0,0,0,2.58-1.26l.8.75a4.38,4.38,0,0,1-7.79-2.75"/><path class="cls-1" d="M154,51.21V46h1.26v4.94a2.26,2.26,0,0,0,2.34,2.56,2.5,2.5,0,0,0,2.54-2.65V46h1.24v8.46h-1.24V52.94a3.22,3.22,0,0,1-2.9,1.65A3.08,3.08,0,0,1,154,51.21"/><rect class="cls-1" x="164" y="42.47" width="1.26" height="11.95"/><path class="cls-1" d="M168.29,52.17V47.06h-1.18V46h1.18V43.4h1.26V46h2.69v1.11h-2.69V52a1.24,1.24,0,0,0,1.42,1.4,2.67,2.67,0,0,0,1.23-.29V54.2a3.13,3.13,0,0,1-1.52.36,2.15,2.15,0,0,1-2.39-2.39"/><path class="cls-1" d="M180.45,46h1.34l-3.55,8.74c-.72,1.75-1.54,2.39-2.81,2.39a3.8,3.8,0,0,1-1.8-.43l.42-1a2.7,2.7,0,0,0,1.33.31c.75,0,1.23-.4,1.73-1.59L173.27,46h1.39L177.74,53Z"/><path class="cls-1" d="M91.35,68.1v0a4.41,4.41,0,0,1,8.82,0v0a4.39,4.39,0,0,1-4.43,4.42,4.33,4.33,0,0,1-4.39-4.38m7.53,0v0a3.2,3.2,0,0,0-3.14-3.3A3.12,3.12,0,0,0,92.64,68v0a3.17,3.17,0,0,0,3.13,3.29,3.12,3.12,0,0,0,3.11-3.25"/><path class="cls-1" d="M102.58,64.94h-1.16v-1.1h1.16v-.73a3,3,0,0,1,.73-2.18,2.49,2.49,0,0,1,1.82-.66,3.75,3.75,0,0,1,1.39.22v1.09a4.24,4.24,0,0,0-1.23-.21c-1,0-1.47.59-1.47,1.8v.69h2.68v1.08h-2.66v7.35h-1.26Z"/><path class="cls-1" d="M117.47,60.75h1.21l5.22,11.54h-1.39l-1.34-3h-6.24l-1.35,3h-1.33Zm3.19,7.33-2.6-5.83-2.62,5.83Z"/><path class="cls-1" d="M124.18,68.1v0a4.41,4.41,0,0,1,7.73-2.91l-.84.88a3.41,3.41,0,0,0-2.57-1.27,3.12,3.12,0,0,0-3,3.27v0a3.16,3.16,0,0,0,3.11,3.29,3.5,3.5,0,0,0,2.59-1.26l.8.76a4.38,4.38,0,0,1-7.79-2.75"/><path class="cls-1" d="M134.15,70v-5.1H133V63.83h1.18V61.27h1.26v2.56h2.68v1.11h-2.68v4.94a1.25,1.25,0,0,0,1.42,1.41,2.56,2.56,0,0,0,1.23-.3v1.08a3.16,3.16,0,0,1-1.52.36A2.15,2.15,0,0,1,134.15,70"/><path class="cls-1" d="M139.85,69.08V63.82h1.26v4.95a2.25,2.25,0,0,0,2.34,2.55A2.49,2.49,0,0,0,146,68.67V63.82h1.25v8.47H146V70.81a3.22,3.22,0,0,1-2.89,1.66,3.09,3.09,0,0,1-3.24-3.39"/><path class="cls-1" d="M149.08,69.83v0c0-1.79,1.47-2.73,3.61-2.73a8.71,8.71,0,0,1,2.6.36v-.3c0-1.52-.93-2.31-2.52-2.31a5.86,5.86,0,0,0-2.56.63l-.38-1a7.06,7.06,0,0,1,3.08-.7,3.72,3.72,0,0,1,2.73.93,3.36,3.36,0,0,1,.87,2.47v5.18h-1.22V71a3.69,3.69,0,0,1-3,1.46c-1.58,0-3.16-.9-3.16-2.64m6.23-.65v-.82a8.84,8.84,0,0,0-2.49-.36c-1.58,0-2.47.69-2.47,1.75v0c0,1.07,1,1.69,2.13,1.69,1.56,0,2.83-1,2.83-2.29"/><path class="cls-1" d="M158.85,63.83h1.26V66a3.62,3.62,0,0,1,3.45-2.35V65h-.1c-1.85,0-3.35,1.32-3.35,3.87v3.38h-1.26Z"/><path class="cls-1" d="M165.17,60.59h1.44V62h-1.44Zm.08,3.23h1.26v8.47h-1.26Z"/><path class="cls-1" d="M168.57,68.08v0a4.17,4.17,0,0,1,4.06-4.4c2.5,0,3.94,2,3.94,4.46,0,.17,0,.26,0,.41h-6.71a3,3,0,0,0,3,2.87,3.5,3.5,0,0,0,2.67-1.2l.79.7a4.36,4.36,0,0,1-3.49,1.59,4.2,4.2,0,0,1-4.22-4.4m6.73-.49c-.14-1.54-1-2.88-2.7-2.88a2.91,2.91,0,0,0-2.75,2.88Z"/><path class="cls-1" d="M177.74,71.21l.63-.9a5,5,0,0,0,2.93,1.08c1,0,1.75-.53,1.75-1.35v0c0-.85-1-1.18-2.11-1.49-1.32-.37-2.8-.83-2.8-2.39v0c0-1.46,1.22-2.42,2.88-2.42a5.81,5.81,0,0,1,3,.93l-.57,1a4.79,4.79,0,0,0-2.51-.82c-1,0-1.63.53-1.63,1.23v0c0,.8,1,1.11,2.17,1.46,1.31.39,2.72.9,2.72,2.42v0c0,1.61-1.33,2.54-3,2.54a5.85,5.85,0,0,1-3.5-1.24"/><path class="cls-2" d="M46.63,23.11l.69,1,.46.63a7.13,7.13,0,0,0,.49.63,5.31,5.31,0,0,0,1.23,1,5.49,5.49,0,0,0,1.5.58,6.93,6.93,0,0,0,1.64.16,2.74,2.74,0,0,0,1.26-.32s.24-.12.23-.17a1.94,1.94,0,0,0-.13-.42c-.63-1.62-2.77-2.91-4.22-1.59-.11-1.5,1.61-3.27,3.79-1.63a21.58,21.58,0,0,0-1.9-2.38,5.87,5.87,0,0,1-.9-1.31,8,8,0,0,1-.59-1.42c0-.15-.08-.29-.12-.44a3.56,3.56,0,0,1,0-1.59,2.42,2.42,0,0,1,.42-.87,2.57,2.57,0,0,1,2-1,2.62,2.62,0,0,1,1.64-1c.53-.11,2.18-.31,2.37-1,.06.25,0,1.88-1,2.21a13.31,13.31,0,0,1,2.36,1.16,4.62,4.62,0,0,0,2.51.87c.75-.17-2.07,2.06-5.26-.59a1.75,1.75,0,0,1-.1,1.91,1.64,1.64,0,0,1-1.72.15,1.46,1.46,0,0,0,.13-2c-.4-.55-1.91-.25-2.73.64a.69.69,0,0,1,.13-.11,10.86,10.86,0,0,1,4.23,6.11A4.35,4.35,0,0,1,58,19.1a6.18,6.18,0,0,0-1,3.81,5.85,5.85,0,0,1-1.43,4.22,3.58,3.58,0,0,1-1.73,2.2,5.23,5.23,0,0,1-3.16-.08,8.23,8.23,0,0,1-2.4-1.45,6.79,6.79,0,0,0,5.06,3.82c-.54.87-2.21.63-2.83.38a5.9,5.9,0,0,1,.88,1.65A14.44,14.44,0,0,0,52.18,36a6.07,6.07,0,0,1-3-3.61c0,1.24-1.21,2.44-1.64,2.9A11.94,11.94,0,0,0,46.2,29c.38-3.62,0-4.83-.4-5.7L45.62,23a1.47,1.47,0,0,0,.71.15,1.13,1.13,0,0,0,.3,0"/><path class="cls-2" d="M26.11,53.94h0a1.53,1.53,0,0,1-1.53-.64s.06-1.29-.15-1.42S24,53.54,24,53.75c-.08.55-.21.5-.35,1.15-1.38.37-2.14.55-2.87-.78,0,.09.66,1.55.48,1.5a2.3,2.3,0,0,1-2-1.9,3.23,3.23,0,0,1,0,1.45A1.48,1.48,0,0,1,18.25,54a4,4,0,0,1,.27-.94,3,3,0,0,1,.85-.58l.25-.15a5.33,5.33,0,0,0,1.65-1.77,3.21,3.21,0,0,0,1.15,2.33,6.93,6.93,0,0,0,1.39-3c0-.89-.37-1.47-.06-1.9a4.14,4.14,0,0,1,1.08-.87l0-.1a3.53,3.53,0,0,1,.15-.46l.46,0a2.71,2.71,0,0,1,.67-.25,5.92,5.92,0,0,0-.63.94h0a.59.59,0,0,0-.19,0l-.06.09a4.16,4.16,0,0,0-.22.48l0,.12c0,.14-.07.27-.1.41a1.86,1.86,0,0,0-.06.34v.09a.16.16,0,0,0,0,.11.1.1,0,0,0,.08.06H25l.09,0a1.22,1.22,0,0,1,.59-.2c.15,0,.6.95-.1,1.07,0,0-.18,1.35-.49,1.47l.34.7c.43.16.71,1,.09,1.11.13.09.31.73.61.92"/><polyline class="cls-2" points="9.85 59.88 9.85 59.88 9.86 59.88 9.86 59.88 9.85 59.88"/><polyline class="cls-2" points="7.79 60.96 7.79 60.96 7.8 60.97 7.8 60.97 7.79 60.96"/><path class="cls-2" d="M14.74,44.68c.33-.57,1.69-2.78,1-3.92-.28-.48-.66-.67-1.49-.68s-1.55,0-2.1,0L11,40c-.88,0-1-.12-1.21.19l0,0a13.78,13.78,0,0,0-1.88,3.58c-1.62,4.59-3,11-2.47,13.87.06.31.18.31.22.31,1,0,6-7.87,9.14-13.29"/><path class="cls-2" d="M46.48,33.79h0a13.52,13.52,0,0,1-1.76,2.39h1.7a9.84,9.84,0,0,0,.06-2.38"/><path class="cls-2" d="M39.2,36a44.31,44.31,0,0,1-5.26-3.85l-1.1.73a19,19,0,0,0,6.36,6.36Z"/><path class="cls-2" d="M39.93,39.24a19.13,19.13,0,0,0,6.35-6.38l-1.11-.73A42.64,42.64,0,0,1,39.92,36Z"/><path class="cls-2" d="M32.85,23a1.45,1.45,0,0,0,.7-.15c0,.07-.15.25-.18.31-.38.88-.78,2.08-.4,5.7a12,12,0,0,0-1.3,6.29c-.43-.45-1.69-1.65-1.63-2.9A6.1,6.1,0,0,1,27,35.9a13.54,13.54,0,0,0,.79-2.35,5.89,5.89,0,0,1,.89-1.65c-.63.25-2.29.49-2.84-.38a6.79,6.79,0,0,0,5.07-3.81,8.45,8.45,0,0,1-2.4,1.44,5.23,5.23,0,0,1-3.16.08A3.55,3.55,0,0,1,23.6,27a5.85,5.85,0,0,1-1.43-4.22,6.23,6.23,0,0,0-1-3.81,4.33,4.33,0,0,1,2.92,3.21A10.76,10.76,0,0,1,28.3,16.1a.69.69,0,0,1,.13.11c-.82-.89-2.33-1.19-2.73-.65a1.45,1.45,0,0,0,.13,2,1.63,1.63,0,0,1-1.72-.14c-.53-.48-.34-1.44-.11-1.92-3.18,2.65-6,.43-5.26.59a4.62,4.62,0,0,0,2.51-.87A14.56,14.56,0,0,1,23.62,14c-1-.32-1-1.95-1-2.21.19.68,1.84.88,2.37,1a2.63,2.63,0,0,1,1.64,1,2.57,2.57,0,0,1,2,1,2.6,2.6,0,0,1,.42.87,3.42,3.42,0,0,1,0,1.59c0,.15-.07.29-.11.44a8.85,8.85,0,0,1-.59,1.42,5.91,5.91,0,0,1-.91,1.31,21.81,21.81,0,0,0-1.9,2.38c2.18-1.64,3.9.13,3.79,1.63-1.45-1.32-3.59,0-4.22,1.59a1.79,1.79,0,0,0-.13.42s.2.15.23.17a2.74,2.74,0,0,0,1.26.32,6.93,6.93,0,0,0,1.64-.16,5.49,5.49,0,0,0,1.5-.58,5.31,5.31,0,0,0,1.23-1,5.64,5.64,0,0,0,.49-.63l.46-.63.7-1a1.05,1.05,0,0,0,.3,0"/><path class="cls-2" d="M46.07,22.43A2.76,2.76,0,0,1,44.81,22a11.65,11.65,0,0,0-2.36-.78A18.45,18.45,0,0,0,40,20.84a3.63,3.63,0,0,0-.44,0h-.05a13.11,13.11,0,0,0-1.84.19,19.27,19.27,0,0,0-2.22.48,5.72,5.72,0,0,0-1.23.52,2.92,2.92,0,0,1-1.25.42.71.71,0,0,1-.63-.53c-.2-.53.32-1.35,1.75-2a10,10,0,0,1,2.31-.67A16.4,16.4,0,0,1,39,19h.51a18.93,18.93,0,0,1,2.17.12,12.13,12.13,0,0,1,2.55.57A4.25,4.25,0,0,1,46.7,21.2a1.19,1.19,0,0,1,0,.82.62.62,0,0,1-.63.41"/><path class="cls-2" d="M24.8,68.84c.63.36,1.23.71,1.84,1a26.66,26.66,0,0,0,12.78,3.43h.16A26.44,26.44,0,0,0,52.3,69.88c.61-.33,1.21-.68,1.84-1A28.34,28.34,0,0,1,59,66.42a5.12,5.12,0,0,1,.17-.85,29.15,29.15,0,0,0-5.25,2.57c-.63.37-1.23.71-1.83,1a26,26,0,0,1-12.57,3.37A26,26,0,0,1,27,69.17c-.6-.32-1.2-.66-1.83-1a27.42,27.42,0,0,0-5.32-2.59,6,6,0,0,1,.07.85,27.51,27.51,0,0,1,4.92,2.44"/><path class="cls-2" d="M68.23,66.07a2.91,2.91,0,0,0-1.36-.73,5.21,5.21,0,0,1,0,.79c.44.16.5.15.65.33a.41.41,0,0,1,.06.25c-.08.35-.09.46-.14.62s-.11.39-.19.71A11.78,11.78,0,0,0,67.12,71a3.15,3.15,0,0,0-2.23-.54c-1.8,0-3.92,1.19-6.37,2.57-1.46.82-3.11,1.75-4.9,2.54A33,33,0,0,1,39.53,78.6h0a33,33,0,0,1-14.09-3.08C23.65,74.73,22,73.8,20.54,73c-2.45-1.38-4.57-2.57-6.37-2.57a3.32,3.32,0,0,0-2.32.78,15.14,15.14,0,0,0-.24-3.14,7.19,7.19,0,0,0-.19-.72,3.24,3.24,0,0,1-.16-.56.31.31,0,0,1,.07-.22,1.47,1.47,0,0,1,.69-.37,2.75,2.75,0,0,1,0-.79,3.28,3.28,0,0,0-1.37.7,1.14,1.14,0,0,0-.16.8,3.51,3.51,0,0,0,.19.64,2.56,2.56,0,0,1,.13.47A13.67,13.67,0,0,1,11,72.2c0,.17,0,.3,0,.3v0a2.7,2.7,0,0,0,1.25,2.32,2.46,2.46,0,0,0,.39.22,3.8,3.8,0,0,0,1.4.28,6.65,6.65,0,0,0,1.41-.1,2.84,2.84,0,0,0,1.32-.57,1.5,1.5,0,0,0,.44-.56.61.61,0,0,0,0-.32c-.15-.86-2.88-1-3-.13,0,.14-.65.11-.65,0,0-.86,0-1.68,0-2.54A2,2,0,0,1,14,71a.78.78,0,0,1,.29,0c0,.71,0,.9,0,1.61a2.76,2.76,0,0,1,3,.19v-.69c.93.44,1.93,1,3,1.61,1.47.83,3.12,1.7,4.93,2.5a33.7,33.7,0,0,0,14.33,3.15h0a33.66,33.66,0,0,0,14.34-3.13,54.88,54.88,0,0,0,4.94-2.57c1.08-.61,2.08-1.18,3-1.62v.76a2.82,2.82,0,0,1,3-.13V71a1.64,1.64,0,0,1,.33,0,1.13,1.13,0,0,1,.32,0v2.52c0,.14-.62.17-.65,0-.15-.92-2.88-.73-3,.13a.91.91,0,0,0,0,.25,1.7,1.7,0,0,0,.45.61,2.87,2.87,0,0,0,1.32.59,6.65,6.65,0,0,0,1.41.1h.09a2.72,2.72,0,0,0,2.94-2.73,2.45,2.45,0,0,0,0-.37,12.09,12.09,0,0,1,0-4.19c.06-.27.1-.36.13-.47a5.88,5.88,0,0,0,.19-.64,1.11,1.11,0,0,0-.16-.8"/><path class="cls-2" d="M25,65.06a2.42,2.42,0,0,0,1.94,0,16.89,16.89,0,0,0,1.33,1.34c-1,.25-3.1.7-4.46-.79.48,1.38,1.35,2.68,5.64,1.9a18.08,18.08,0,0,0,1.88,1.58.9.9,0,0,0,1.18.07.64.64,0,0,0,0-1,14.3,14.3,0,0,1-2.15-1.73c.15-.46,1.8-3.74-.71-5.06a5,5,0,0,1-.25,4.15,8.75,8.75,0,0,1-1.32-1.38,1.44,1.44,0,0,0,.24-.42,2.52,2.52,0,0,0-1.18-3.36,2.45,2.45,0,0,0-1.64-.13l-1.41-3.5-.09.72-.69.07,0,.71-.73.08,0,.71-.76.08v.71L21,59.9l0,.66-.81.13L23.7,62a2.52,2.52,0,0,0,1.31,3"/><path class="cls-3" d="M51.86,59.18a14.18,14.18,0,0,1-.12-1.6,8,8,0,0,1,1.29.93c.33-1.21,3-.89,2.83.29a12.29,12.29,0,0,1,1.53-.64,7.7,7.7,0,0,1-.52,1.58h0c1.3-.22,1.68,2.33.59,2.69h0a13.6,13.6,0,0,1,1.1,1.29,8.55,8.55,0,0,1-1.6,0c.54,1.15-1.8,2.33-2.43,1.4a12.61,12.61,0,0,1-.88,1.44,8.65,8.65,0,0,1-.5-1.54.92.92,0,0,1-1.19,0,19,19,0,0,1-2.33,2.4c.86.35,1.17-.71,2.46-.61.81.06.95.94,1.45.75a3.29,3.29,0,0,1-1.89.92c-1.49.1-1.69-.5-2.35-.75a11.23,11.23,0,0,1-2.24,1.39s-1,.68-1.34-.22.61-1.1.86-1.2a10.56,10.56,0,0,0,1.93-1.06c-.35-1.07-1.51-.29-1.39-2,.08-1.11.85-1.78.79-1.56.12.86.75.71,1.06,1.35.49,1-.33,1.28,0,2a11,11,0,0,0,2.22-2.06.89.89,0,0,1-.12-1.14l0,0a14,14,0,0,1-1.64-.4,8.73,8.73,0,0,1,1.27-.92c-1.16-.57-.08-3.23,1.15-2.66m.71,2.56a1.43,1.43,0,0,0,.15.69,6.72,6.72,0,0,0-.75.4c-.19.31,1.16,1.47,1.39,1.19h0c.1-.25.2-.5.28-.75a1.42,1.42,0,0,0,.7.08,7,7,0,0,0,.13.78h0c.17.31,1.69-.59,1.57-.92a6.11,6.11,0,0,0-.63-.51,1.47,1.47,0,0,0,.29-.65,5.26,5.26,0,0,0,.78.12c.31-.13,0-1.86-.41-1.76h0a6.9,6.9,0,0,0-.63.42,1.61,1.61,0,0,0-.53-.48,6.76,6.76,0,0,0,.36-.71c-.12-.32-1.66-.51-1.82-.19.06.27.13.54.21.79a1.42,1.42,0,0,0-.61.35,8.07,8.07,0,0,0-.59-.58c-.33,0-1,1.49-.75,1.69a8,8,0,0,0,.84,0"/><path class="cls-3" d="M53.69,61a.92.92,0,0,1,1.24.36.91.91,0,0,1-1.59.89A.92.92,0,0,1,53.69,61"/><path class="cls-2" d="M52.81,53.94h0a1.53,1.53,0,0,0,1.53-.64s-.06-1.29.15-1.42.43,1.66.46,1.87c.08.55.21.5.35,1.15,1.38.37,2.14.55,2.87-.78,0,.09-.66,1.55-.48,1.5a2.3,2.3,0,0,0,2-1.9,3.23,3.23,0,0,0,0,1.45,1.48,1.48,0,0,0,1-1.17,4,4,0,0,0-.27-.94,3,3,0,0,0-.85-.58l-.25-.15a5.33,5.33,0,0,1-1.65-1.77,3.21,3.21,0,0,1-1.15,2.33,6.93,6.93,0,0,1-1.39-3c0-.89.37-1.47.06-1.9a4.14,4.14,0,0,0-1.08-.87l0-.1a3.53,3.53,0,0,0-.15-.46l-.46,0a2.57,2.57,0,0,0-.67-.25,5.92,5.92,0,0,1,.63.94h0a.59.59,0,0,1,.19,0l.06.09a4.16,4.16,0,0,1,.22.48l0,.12c0,.14.07.27.1.41a1.86,1.86,0,0,1,.06.34v.09a.16.16,0,0,1,0,.11.1.1,0,0,1-.08.06h-.06l-.09,0a1.22,1.22,0,0,0-.58-.2c-.16,0-.61.95.09,1.07,0,0,.18,1.35.49,1.47l-.34.7c-.43.16-.71,1-.09,1.11-.12.09-.31.73-.61.92"/><polyline class="cls-2" points="69.07 59.88 69.07 59.88 69.06 59.88 69.06 59.88 69.07 59.88"/><polyline class="cls-2" points="71.13 60.96 71.13 60.96 71.12 60.97 71.12 60.97 71.13 60.96"/><path class="cls-2" d="M64.18,44.68c-.33-.57-1.69-2.78-1-3.92.28-.48.66-.67,1.49-.68s1.55,0,2.1,0L68,40c.88,0,1-.12,1.21.19l0,0a13.78,13.78,0,0,1,1.88,3.58c1.63,4.59,3.05,11,2.47,13.87-.06.31-.18.31-.22.31-1,0-6-7.87-9.14-13.29"/><path class="cls-2" d="M46.59,17.73A5.25,5.25,0,0,1,47,19.58c-.33-.2-1.3.1-1.87-.2s-.35-1-.33-1.38h0a1.33,1.33,0,0,1-.29.07.31.31,0,0,1-.29-.09.63.63,0,0,1-.07-.38,6.26,6.26,0,0,1-1.07.22,30,30,0,0,1-7.09,0,8,8,0,0,1-1.2-.25.62.62,0,0,1-.07.39.34.34,0,0,1-.29.08L34.19,18c0,.39.17,1.1-.33,1.36s-1.54,0-1.87.2a5.25,5.25,0,0,1,.43-1.85,1.28,1.28,0,0,1,1-.35h.07l-.09-.15a.34.34,0,0,1,0-.31c.06-.09.24-.11.37-.11a4,4,0,0,1-.37-1.48,17.7,17.7,0,0,1,0-4.49,3.11,3.11,0,0,1,.43-1.44h0c-.14,0-.38,0-.45-.11a.31.31,0,0,1,0-.31.64.64,0,0,1,.08-.14h0l-.12,0a1.27,1.27,0,0,1-1-.35,5.11,5.11,0,0,1-.44-1.85c.34.19,1.3-.1,1.87.19s.36,1,.33,1.38l.34-.1a.34.34,0,0,1,.29.08.63.63,0,0,1,.06.41,7.89,7.89,0,0,1,2-.34,33.6,33.6,0,0,1,6,0,5.13,5.13,0,0,1,1.38.26.63.63,0,0,1,.06-.35.35.35,0,0,1,.29-.08l.29.06c0-.39-.16-1.08.33-1.34s1.54,0,1.87-.19a5.3,5.3,0,0,1-.43,1.85,1.29,1.29,0,0,1-1,.35l-.07,0a.56.56,0,0,1,.07.13.31.31,0,0,1,0,.31c-.06.09-.26.11-.4.11a4.61,4.61,0,0,1,.42,1.6,15.73,15.73,0,0,1,0,4,4.47,4.47,0,0,1-.41,1.84c.14,0,.31,0,.37.11a.33.33,0,0,1,0,.32l-.11.18.1,0a1.31,1.31,0,0,1,1,.35m-12-6a3.32,3.32,0,0,0,1.84.3c.8-.05,1-.18,1.53.19s.45,1.09.67,1.63a3.14,3.14,0,0,0,1.18,1.57,3,3,0,0,0,1.85.62c.75,0,1.39-.19,1.8.16s.38.39.44.6c.9-.16,1-1.32,1-2.16-.17-.19-.2-.17-.59-.42a3.16,3.16,0,0,0-1.72-.37A2.22,2.22,0,0,1,41,13.68,3.71,3.71,0,0,1,40.38,12a3.17,3.17,0,0,0-1-1.4,3.12,3.12,0,0,0-2-.74c-.67,0-1.43.17-1.82-.09a1,1,0,0,1-.43-.64S34,9.39,34,11.25a1.54,1.54,0,0,0,.6.53"/><path class="cls-2" d="M21.25,38.46a4.85,4.85,0,0,1,1.58,1A2.76,2.76,0,0,1,23.67,41a6.12,6.12,0,0,1,.06,2.23,14.41,14.41,0,0,1-.48,2,18.61,18.61,0,0,1-1.28,3,12.6,12.6,0,0,1-2,2.94,6.77,6.77,0,0,1-1,.78c-.33.21-.78.34-1,.71-.27.57-.71,2.63-1.09,3.85a28.43,28.43,0,0,0-1.16,3.67c0,.31-.09.44-.2.46l-.09.52c0,.37.08,2.37.48,2.68s.61.68,1.16.68a14.09,14.09,0,0,0,1.45-.22,3.62,3.62,0,0,1,.76,2.36,2,2,0,0,0-.8-1,5.31,5.31,0,0,0-.69-.29c-.16,0,.18.24.26.33a1.85,1.85,0,0,1,.27.47,3.17,3.17,0,0,1-.08,1.18c-.19-.34-.55-.95-.86-.95,0,0-.74.18-1-.34-.34,0-.89-.15-.95-.33a8.56,8.56,0,0,1-1,.06s-.86.55-1.07.21c0,0-.76.43-.76,1,0,0-.56-2.16.42-2.43,0,0,1,.18,1.19-.43s-.43-2.49-.89-3.77a4.31,4.31,0,0,1-.47-2.73,51.41,51.41,0,0,1-3.28,5.32c-.63.44-3.94-1.32-3.75-2,.06-.23.42-1.24,1.21-3.3,2.94-3.23,7.81-11.82,8.45-13,.3-.52,1.68-2.75.83-4.25a2.36,2.36,0,0,0-2.07-1c-.86,0-1.55,0-2.1-.05L11,39.3a5.28,5.28,0,0,0-.61,0,3.83,3.83,0,0,1,.67-.6.6.6,0,0,0,.2,0V36.88s0-.18,0-.31c-.15-1.27-.42-5.2.92-6.57a4.24,4.24,0,0,1,.09-3.34c.72.12,1.52,1.13,2,2.34a7.21,7.21,0,0,1,3.79.09c.45-.76.84-2,2.23-2.25a4.25,4.25,0,0,1,.05,3.22c.56.47,1.25,2,.83,6.13ZM20,41.19a2.19,2.19,0,1,0,2.2,2.19A2.19,2.19,0,0,0,20,41.19m-2.44-3.06a2.7,2.7,0,0,1,1.12-.45,2.78,2.78,0,0,1,1,.29l.68.27V36.08c-.27-.1-.33-.13-.61-.25a3,3,0,0,0-1.08-.3A2.8,2.8,0,0,0,17.5,36a3.23,3.23,0,0,1-1.38.52A2,2,0,0,1,15,36.09a2.18,2.18,0,0,0-1.19-.46,3.4,3.4,0,0,0-1.46.5,1.83,1.83,0,0,0-.25.15v2.14c.16-.08.06,0,.33-.15a3.39,3.39,0,0,1,1.38-.49,2.06,2.06,0,0,1,1.09.43,2.12,2.12,0,0,0,1.18.46,3.23,3.23,0,0,0,1.47-.54M14.45,31.6a.93.93,0,1,0,.92.92.93.93,0,0,0-.92-.92M12.61,34a2,2,0,0,0,.91.58,2,2,0,0,0,1,0h0a.14.14,0,0,0,.08-.13s-.07-.1-.1-.1a1.94,1.94,0,0,1-.84-.16,1.64,1.64,0,0,1-.68-.54,2.07,2.07,0,0,1-.37-.76,1.9,1.9,0,0,1,0-.82,2.05,2.05,0,0,1,.91-1.38,1.58,1.58,0,0,1,.78-.26,1.7,1.7,0,0,1,.86.12h0a.14.14,0,0,0,.18-.07.16.16,0,0,0,0-.19,1.88,1.88,0,0,0-1-.33,2,2,0,0,0-1.06.25A2.52,2.52,0,0,0,12,32a2.59,2.59,0,0,0,.61,2m2.88.74a2.11,2.11,0,0,1,.42.38,5.2,5.2,0,0,1,.36.52,3.8,3.8,0,0,1,.36-.52,1.85,1.85,0,0,1,.42-.38s-.19-.24-.41-.54a3.51,3.51,0,0,1-.37-.68,3.25,3.25,0,0,1-.38.68l-.4.54m2.6-1.32a.93.93,0,1,0-.93-.93.93.93,0,0,0,.93.93m-.88-2.91a.13.13,0,0,0,.16.05h0a1.75,1.75,0,0,1,.86-.15,1.81,1.81,0,0,1,.81.27,2.21,2.21,0,0,1,.86,2.22,2.16,2.16,0,0,1-.39.77,1.57,1.57,0,0,1-.63.54,1.93,1.93,0,0,1-.87.15.12.12,0,0,0-.1.1s0,.12.07.13h0a2,2,0,0,0,1,0,2,2,0,0,0,.9-.58,2.58,2.58,0,0,0,.64-2,2.46,2.46,0,0,0-1.23-1.76A2.06,2.06,0,0,0,18.24,30a1.81,1.81,0,0,0-1,.33.17.17,0,0,0,0,.21"/><path class="cls-2" d="M26.37,48.15V37.35h0V36.8H34.9a21.21,21.21,0,0,0,4.64,3.52,18.29,18.29,0,0,0,4.62-3.52h8.4V48.15A24.26,24.26,0,0,1,49.78,58.6a21.89,21.89,0,0,1-3.51,5,22,22,0,0,1-6.81,5.18h0c-7.21-3.4-13.09-12-13.09-20.59m3.06-5.38a9.39,9.39,0,0,0,3.75,2A6.83,6.83,0,0,1,36,46a4.78,4.78,0,0,1,1.39,2.56,7.8,7.8,0,0,0,2.08,3.48,8.3,8.3,0,0,0,3.7,2.09,7.64,7.64,0,0,1,3.25,1.44,6.29,6.29,0,0,1,1.34,4.75,21.92,21.92,0,0,0,2.36-4.57,5.23,5.23,0,0,0-1.46-2.91c-1.25-1.31-3.23-1.63-4.24-2a5.5,5.5,0,0,1-2.5-1.46,5.11,5.11,0,0,1-1.42-2.53,6.47,6.47,0,0,0-2-3.44c-1.08-1.08-3.23-1.64-4.27-1.93A3.75,3.75,0,0,1,32,40.28a3.57,3.57,0,0,1-1.2-2.06,2.88,2.88,0,0,1,0-.58H27.35v.6c0,.22,0,.87.06,1a7.57,7.57,0,0,0,2,3.49m7.25,12.52s0-.22-.2-.22H36c-.14,0-.19.18-.19.22h0l.36,2.57h.15l.36-2.57h0M34,54.77a.29.29,0,0,1,.11-.22c.74-.61,1-2.14,1.3-3H31.9c.25.84.56,2.37,1.31,3a.32.32,0,0,1,.1.22.29.29,0,0,1-.1.22c-.72.59-1,2-1.27,2.88h3.47c-.26-.86-.56-2.29-1.27-2.88a.27.27,0,0,1-.11-.22m2.4-3.83a.79.79,0,0,0,.1-.46.73.73,0,0,0-.1-.44H30.86a.69.69,0,0,0-.12.44.74.74,0,0,0,.12.46Zm-4.85,3.24-.36-2.61h-.15l-.36,2.61h0s.05.22.2.22h.48c.14,0,.19-.17.2-.22h0m4.74-2.61h-.15l-.36,2.61h0s0,.22.19.22h.48c.15,0,.2-.17.2-.22h0ZM30.71,55.3l.36,2.57h.15l.36-2.57h0s-.06-.22-.2-.22h-.48c-.15,0-.19.18-.2.22h0m.14,4.12h5.56a.68.68,0,0,0,.12-.46.79.79,0,0,0-.1-.46H30.86a.74.74,0,0,0-.12.46.76.76,0,0,0,.11.46M49.69,44.57s0-.22-.19-.22H49c-.15,0-.2.18-.2.22h0l.36,2.57h.15l.36-2.57h0m-2.64-.52a.32.32,0,0,1,.1-.22c.74-.61,1.06-2.14,1.3-3H44.92c.24.84.55,2.37,1.3,3a.32.32,0,0,1,.1.22.29.29,0,0,1-.1.22c-.72.59-1,2-1.27,2.88h3.47c-.26-.86-.55-2.29-1.27-2.88a.29.29,0,0,1-.1-.22m2.39-3.83a.79.79,0,0,0,.1-.46.73.73,0,0,0-.1-.44H43.87a.69.69,0,0,0-.12.44.74.74,0,0,0,.12.46ZM44.6,43.45l-.36-2.6h-.16l-.36,2.6h0s.06.22.2.22h.48c.14,0,.19-.17.2-.22h0m4.73-2.6h-.15l-.36,2.6h0s0,.22.2.22h.48c.14,0,.19-.17.19-.22h0Zm-5.61,3.73.36,2.57h.16l.36-2.57h0s-.06-.22-.2-.22h-.48c-.14,0-.19.18-.2.22h0m.14,4.12h5.57a.76.76,0,0,0,.11-.46.79.79,0,0,0-.1-.46H43.87a.74.74,0,0,0-.12.46.76.76,0,0,0,.11.46"/><path class="cls-2" d="M57.7,36.19h0c-.42-4.11.27-5.66.83-6.13a4.25,4.25,0,0,1,0-3.22c1.39.22,1.78,1.49,2.23,2.26A7.11,7.11,0,0,1,64.6,29c.5-1.21,1.3-2.22,2-2.34A4.24,4.24,0,0,1,66.71,30c1.34,1.37,1.07,5.3.92,6.57,0,.13,0,.31,0,.31v1.81a.6.6,0,0,0,.2,0,3.47,3.47,0,0,1,.67.6,5.28,5.28,0,0,0-.61,0l-1.22,0c-.55,0-1.24,0-2.1.05a2.36,2.36,0,0,0-2.07,1c-.85,1.5.53,3.73.83,4.25.64,1.16,5.51,9.75,8.45,13,.79,2.06,1.15,3.07,1.21,3.3.19.68-3.12,2.44-3.75,2A51.41,51.41,0,0,1,66,57.6a4.31,4.31,0,0,1-.47,2.73c-.46,1.28-1.06,3.28-.89,3.77s1.19.43,1.19.43c1,.27.42,2.43.42,2.43,0-.56-.76-1-.76-1-.21.34-1.07-.21-1.07-.21a8.56,8.56,0,0,1-1-.06c-.06.18-.61.33-1,.33-.24.52-1,.34-1,.34-.31,0-.67.61-.86.95a3.17,3.17,0,0,1-.08-1.18,1.85,1.85,0,0,1,.27-.47c.08-.09.42-.35.26-.33a5.31,5.31,0,0,0-.69.29,2.06,2.06,0,0,0-.8,1,3.62,3.62,0,0,1,.76-2.36,14.26,14.26,0,0,0,1.45.21c.55,0,.76-.36,1.16-.67s.48-2.31.48-2.68l-.09-.52c-.11,0-.21-.15-.21-.46A28.36,28.36,0,0,0,62,56.49c-.38-1.22-.82-3.28-1.09-3.85-.18-.37-.63-.5-1-.71a6.77,6.77,0,0,1-1-.78,12.6,12.6,0,0,1-2-2.94,18.61,18.61,0,0,1-1.28-3,13.13,13.13,0,0,1-.47-2,5.87,5.87,0,0,1,0-2.22,2.76,2.76,0,0,1,.84-1.49,4.85,4.85,0,0,1,1.58-1Zm-1,7.19h0a2.2,2.2,0,1,0,2.2-2.19,2.2,2.2,0,0,0-2.2,2.19m6.11-4.71h0A2.12,2.12,0,0,0,64,38.21a2.06,2.06,0,0,1,1.09-.43,3.39,3.39,0,0,1,1.38.49c.27.14.17.07.33.15V36.28a1.83,1.83,0,0,0-.25-.15,3.4,3.4,0,0,0-1.46-.5,2.18,2.18,0,0,0-1.19.46,2,2,0,0,1-1.08.43A3.23,3.23,0,0,1,61.42,36a2.8,2.8,0,0,0-1.21-.47,3,3,0,0,0-1.08.3c-.28.12-.34.15-.61.25v2.16c.31-.11.39-.15.68-.27a2.75,2.75,0,0,1,1-.28,2.67,2.67,0,0,1,1.12.44,3.23,3.23,0,0,0,1.47.54m.75-6.15h0a.93.93,0,1,0,.92-.92.93.93,0,0,0-.92.92M66.92,32h0a2.52,2.52,0,0,0-1.23-1.74A2,2,0,0,0,64.63,30a1.88,1.88,0,0,0-1,.33s0,.13,0,.19a.14.14,0,0,0,.18.07,1.7,1.7,0,0,1,.86-.12,1.58,1.58,0,0,1,.78.26,2.05,2.05,0,0,1,.91,1.38,1.9,1.9,0,0,1,0,.82,2.07,2.07,0,0,1-.37.76,1.64,1.64,0,0,1-.68.54,1.94,1.94,0,0,1-.84.16s-.09.06-.1.1a.14.14,0,0,0,.08.13h0a2,2,0,0,0,1,0,2,2,0,0,0,.91-.58,2.59,2.59,0,0,0,.61-2M63,34.23h0a3.25,3.25,0,0,1-.38-.68,3.51,3.51,0,0,1-.37.68l-.41.54a1.85,1.85,0,0,1,.42.38,3.8,3.8,0,0,1,.36.52,4.41,4.41,0,0,1,.37-.52,1.92,1.92,0,0,1,.41-.38l-.4-.54m-1.27-1.71h0a.93.93,0,1,0-.93.93.93.93,0,0,0,.93-.93m-.08-2.19h0a1.81,1.81,0,0,0-1-.33,2.06,2.06,0,0,0-1.09.25A2.46,2.46,0,0,0,58.36,32,2.58,2.58,0,0,0,59,34a2,2,0,0,0,.9.58,2,2,0,0,0,1,0h0s.07-.09.07-.13a.12.12,0,0,0-.1-.1,1.93,1.93,0,0,1-.87-.15,1.57,1.57,0,0,1-.63-.54,2.16,2.16,0,0,1-.39-.77,1.89,1.89,0,0,1,0-.82,2,2,0,0,1,.87-1.4,1.81,1.81,0,0,1,.81-.27,1.75,1.75,0,0,1,.86.15h0a.13.13,0,0,0,.16-.05.17.17,0,0,0,0-.21"/><path class="cls-2" d="M14.83,32.52h0a.38.38,0,1,1-.38-.38.38.38,0,0,1,.38.38"/><path class="cls-2" d="M18.09,32.9h0a.38.38,0,1,1,.38-.38.38.38,0,0,1-.38.38"/><path class="cls-2" d="M64.09,32.52h0a.38.38,0,1,0,.38-.38.38.38,0,0,0-.38.38"/><path class="cls-2" d="M60.83,32.9h0a.38.38,0,1,0-.38-.38.38.38,0,0,0,.38.38"/><path class="cls-2" d="M39.92,21.52h0a13.7,13.7,0,0,1,4.66,1.09c.72,1.16,1.75,3.07.35,8.9a42.24,42.24,0,0,1-5,3.59V21.52m4.8,4.25-3.95.87v1.61L44.7,27Z"/><path class="cls-2" d="M39.2,35.1h0a43.43,43.43,0,0,1-5-3.59c-1.4-5.84-.36-7.75.36-8.9a13.7,13.7,0,0,1,4.66-1.09c0,.47,0,13.17,0,13.58M34.43,27l3.92,1.3V26.64l-4-.87Z"/><path class="cls-2" d="M32.64,33.79h0a13,13,0,0,0,1.76,2.39H32.69a10.28,10.28,0,0,1,0-2.38"/><path class="cls-2" d="M26.64,72.29a1,1,0,0,1-.76.59,1.46,1.46,0,0,1-1-.16l-.28-.17L24,73.81l-.59-.3L25,70.33a4.21,4.21,0,0,1,.93.36,1.5,1.5,0,0,1,.72.65,1,1,0,0,1,0,1M26,72c.16-.31,0-.57-.36-.77a1.88,1.88,0,0,0-.3-.12l-.5,1a1.64,1.64,0,0,0,.26.16.76.76,0,0,0,.52.08A.58.58,0,0,0,26,72"/><polygon class="cls-2" points="28.45 75.84 26.44 75.06 27.75 71.69 29.71 72.45 29.51 72.98 28.16 72.46 27.84 73.29 28.96 73.72 28.77 74.24 27.64 73.8 27.26 74.77 28.66 75.31 28.45 75.84"/><path class="cls-2" d="M32,77l-.75-.22-.38-1.37a1.73,1.73,0,0,0-.1-.28h-.11L30.46,75l-.4,1.4-.63-.18,1-3.43a4.11,4.11,0,0,1,.93.15c.92.26,1.27.75,1.07,1.46a1,1,0,0,1-.4.55.88.88,0,0,1-.62.17h0c.07,0,.14.14.21.36Zm-.28-2.78c.09-.33-.08-.57-.53-.69a1.55,1.55,0,0,0-.31-.06l-.3,1,.28.1a.71.71,0,0,0,.52,0,.58.58,0,0,0,.34-.39"/><rect class="cls-2" x="31.67" y="75.04" width="3.62" height="0.66" transform="translate(-46.57 95.23) rotate(-79.98)"/><polygon class="cls-2" points="37.53 74.65 36.4 74.53 36.09 77.57 35.43 77.5 35.75 74.47 34.69 74.36 34.75 73.79 37.59 74.08 37.53 74.65"/><rect class="cls-2" x="36.67" y="75.59" width="3.62" height="0.66" transform="matrix(0.04, -1, 1, 0.04, -38.75, 111.69)"/><path class="cls-2" d="M43.19,77.57l-.74.05-.42-.9-1.39.1-.3.93-.71.06,1.25-3.72.63,0Zm-1.41-1.4L41.22,75l-.39,1.25Z"/><path class="cls-2" d="M48.5,76.54l-.77.16-1-1a1.25,1.25,0,0,0-.23-.2h-.05l0,0-.24,0,.3,1.43-.64.13-.75-3.49a4.74,4.74,0,0,1,.9-.3c.93-.2,1.47.06,1.63.78a1,1,0,0,1-.09.67.89.89,0,0,1-.47.45h0c.08,0,.19.06.35.22Zm-1.56-2.32c-.07-.34-.33-.46-.79-.36a1.71,1.71,0,0,0-.3.09L46.08,75l.29,0a.77.77,0,0,0,.46-.26.52.52,0,0,0,.11-.5"/><path class="cls-2" d="M52.33,75.18l-.7.24L51,74.66l-1.32.46-.05,1-.67.24.24-3.91.6-.21Zm-1.73-1-.85-1,0,1.31Z"/><polygon class="cls-2" points="53.89 70.99 52.86 71.47 54.15 74.23 53.55 74.51 52.26 71.75 51.3 72.2 51.06 71.68 53.65 70.47 53.89 70.99"/><rect class="cls-2" x="55.04" y="69.76" width="0.66" height="3.62" transform="translate(-27.15 34.43) rotate(-28.04)"/><path class="cls-2" d="M59.5,69.17a2,2,0,0,1,.28,1.37,1.77,1.77,0,0,1-2.2,1.27,2,2,0,0,1-1-.93,2,2,0,0,1-.29-1.37,1.79,1.79,0,0,1,2.22-1.28,2,2,0,0,1,1,.94m-.61.35a1.72,1.72,0,0,0-.65-.66,1,1,0,0,0-1.35.78,1.7,1.7,0,0,0,.26.89,1.6,1.6,0,0,0,.64.65.95.95,0,0,0,1.34-.77,1.73,1.73,0,0,0-.24-.89"/><polygon class="cls-2" points="20.96 72.09 19.09 71.01 20.9 67.88 22.73 68.93 22.45 69.43 21.19 68.7 20.75 69.47 21.8 70.08 21.52 70.55 20.47 69.95 19.95 70.85 21.25 71.59 20.96 72.09"/><rect class="cls-1" x="82.44" y="21.62" width="0.76" height="53.14"/></svg>