<svg xmlns="http://www.w3.org/2000/svg" viewBox="-0.03 -0.03 57.97 55.88"><path d="M57.6,10.3l-6.91-5.43h0c.02.13,1.55,13.94-2.35,23.87-3.9,9.92-11.67,15.64-11.67,15.64,0,0-7.92-2.66-13.86-9.61-5.66-6.63-7.24-17.2-7.24-17.2,0,0-1.65.59-3.44,1.46-1.79.87-3.28,1.96-3.28,1.96,0,0,1.84,10.3,7.69,17.6,6.65,8.29,20.7,13.88,20.7,13.88,2.84-1.65,11.78-7.55,16.66-18.73,5.6-12.8,3.71-23.44,3.71-23.44h0Z" fill="#03558f"/><path d="M22.31,6.98c12.02-1.64,20.64,2,20.64,2,0,0,1.06,6.87-2.16,16.12-3.81,10.92-10.44,15.01-10.44,15.01,0,0,1.44.92,3.08,1.81,1.64.89,3.01,1.4,3.01,1.4,0,0,6.3-4.5,10.81-14.71,4.06-9.2,2.4-24.32,2.4-24.32,0,0-10.23-5.49-25.74-4.05C8.4,1.68,1.55,8.29,1.55,8.29L.03,16.3s11.96-7.91,22.28-9.32Z" fill="#03558f"/><path d="M15.76,39.34c-6.53-7.8-8.03-18.83-8.03-18.83,0,0,5.99-4.46,14.82-5.85,9.16-1.44,19.31,1.61,19.31,1.61,0,0,.23-1.46.3-3.54.06-1.79-.1-3.01-.1-3.01,0,0-8.82-3.28-19.61-1.81C12.2,9.32.09,17.43.09,17.43L0,17.49s-.06,11.44,8.04,23.04c8.65,12.38,19.5,15.31,19.5,15.31l8.5-2.79c.07.03-13.73-5.87-20.29-13.7Z" fill="#03558f"/></svg>